<svg xmlns="http://www.w3.org/2000/svg" xmlns:svg="http://www.w3.org/2000/svg" xmlns:xlink="http://www.w3.org/1999/xlink" id="Layer_1" width="370" height="125" x="0" y="0" enable-background="new 0 0 360 360" version="1.1" viewBox="0 0 370 125" xml:space="preserve"><metadata id="metadata37"/><defs id="defs35"><defs id="defs11"><path id="SVGID_1_" d="m 54,180 c 0,-69.588 56.412,-126 126,-126 26.771,0 114.592,-14.236 135,0 32.643,22.77 -9,83.183 -9,126 0,69.588 -56.412,126 -126,126 C 110.412,306 54,249.588 54,180 z"/></defs><clipPath id="SVGID_2_"><use style="overflow:visible" id="use15" width="360" height="360" x="0" y="0" overflow="visible" xlink:href="#SVGID_1_"/></clipPath><clipPath id="SVGID_2_-7-3"><use style="overflow:visible" id="use15-5-5" width="360" height="360" x="0" y="0" overflow="visible" xlink:href="#SVGID_1_"/></clipPath><clipPath id="SVGID_4_-8-7"><use id="use27-7-2" width="360" height="360" x="0" y="0" overflow="visible" xlink:href="#SVGID_3_-6-3" style="overflow:visible"/></clipPath><clipPath id="SVGID_2_-7-3-1"><use style="overflow:visible" id="use15-5-5-1" width="360" height="360" x="0" y="0" overflow="visible" xlink:href="#SVGID_1_"/></clipPath><clipPath id="SVGID_4_-8-7-3"><use id="use27-7-2-3" width="360" height="360" x="0" y="0" overflow="visible" xlink:href="#SVGID_3_-6-3-4" style="overflow:visible"/></clipPath><clipPath id="SVGID_2_-7-3-10"><use style="overflow:visible" id="use15-5-5-9" width="360" height="360" x="0" y="0" overflow="visible" xlink:href="#SVGID_1_"/></clipPath><clipPath id="SVGID_4_-8-7-6"><use id="use27-7-2-8" width="360" height="360" x="0" y="0" overflow="visible" xlink:href="#SVGID_3_-6-3-7" style="overflow:visible"/></clipPath><clipPath id="SVGID_2_-7-3-1-1"><use style="overflow:visible" id="use15-5-5-1-9" width="360" height="360" x="0" y="0" overflow="visible" xlink:href="#SVGID_1_"/></clipPath><clipPath id="SVGID_4_-8-7-3-5"><use id="use27-7-2-3-6" width="360" height="360" x="0" y="0" overflow="visible" xlink:href="#SVGID_3_-6-3-4-8" style="overflow:visible"/></clipPath></defs><rect id="rect3" width="370" height="125" x="0" y="0" style="fill:#3f5770;fill-opacity:1"/><path id="path7" d="M 174.39875,-49.634455 C -65.812194,-48.440078 -15.040375,32.02434 -12.671614,69.313651 c 0.707326,11.133946 9.0221799,16.991689 9.0221799,16.991689 0,0 100.8945651,-28.049525 177.0928741,-28.619809 81.86801,-0.613163 200.42911,25.793577 200.42911,25.793577 0,0 7.43885,-7.921808 6.85641,-17.11014 -2.37034,-37.288774 33.88073,-117.1978 -206.33021,-116.003423 z" clip-rule="evenodd" style="opacity:.20384617;fill:#2c3e50;fill-opacity:1;fill-rule:evenodd"/><g id="g3022-1-6" transform="matrix(-0.44983343,-0.67785799,-0.67785799,0.44983343,310.45685,123.03486)"><g id="g17-5-7" clip-path="url(#SVGID_2_-7-3)" transform="matrix(0.38862109,0,0,0.38862109,9.4814066,-12.790878)"><path id="path19-5-3" d="m 149.038,143.102 c 1.143,-0.366 2.165,-0.366 2.55,-0.861 12.782,-16.398 30.03,-22.247 50.252,-25.015 21.04,-2.882 41.778,-8.958 62.178,-15.186 18.942,-5.782 36.985,-14.089 51.441,-30.514 -2.273,22.863 -24.931,63.246 -43.863,79.58 1.73,0.881 3.396,1.729 5.929,3.021 -9.462,18.471 -20.057,36.06 -33.281,51.751 -3.242,3.848 -10.524,4.854 -16.186,5.968 -7.312,1.437 -14.866,1.666 -22.934,3.953 6.305,3.033 12.61,6.068 20.41,9.819 -3.312,4.13 -5.222,7.632 -8.102,9.901 -10.571,8.313 -21.381,16.328 -32.268,24.231 -5.737,4.166 -12.248,5.151 -19.248,3.585 -8.405,-1.878 -16.88,-3.461 -28.086,-5.732 7.308,6.32 12.562,10.861 17.926,15.494 -23.006,15.931 -81.646,20.642 -109.761,8.613 -0.044,-0.093 -0.129,-0.155 1.338,-3.547 0.256,-0.595 2.714,-4.296 3.602,-5.221 18.008,-14.086 35.96,-29.018 54.847,-42.65 18.872,-13.627 38.683,-25.959 57.812,-39.317 -42.61,17.28 -81.652,40.468 -117.798,73.383 -0.585,-5.009 -1.371,-8.099 -1.242,-11.15 1.481,-35.121 18.261,-62.538 43.815,-85.212 15.835,-14.05 34.102,-24.415 53.468,-32.832 2.038,-0.888 4.374,-1.088 7.641,-1.861 -0.174,3.853 -0.306,6.752 -0.44,9.799 z" clip-rule="evenodd" style="fill:#fffbf5;fill-rule:evenodd"/></g><g id="g21-6-0" clip-path="url(#SVGID_2_-7-3)" transform="matrix(0.38862109,0,0,0.38862109,9.4814066,-12.790878)"><defs id="defs23-1-1"><path id="SVGID_3_-6-3" d="m 36,279 c 0,0 135,-99 153,-108 18,-9 63,-27 81,-45 18,-18 45.459,-45.475 45,-54 -0.459,-8.525 36,45 36,45 L 270,234 99,315 36,279 z"/></defs><clipPath id="clipPath3825-2"><use id="use3827-9" width="360" height="360" x="0" y="0" overflow="visible" xlink:href="#SVGID_3_-6-3" style="overflow:visible"/></clipPath><g id="g29-8-1" clip-path="url(#SVGID_4_-8-7)" style="opacity:.2"><path id="path31-1-1" d="m 149.038,143.102 c 1.143,-0.366 2.165,-0.366 2.55,-0.861 12.782,-16.398 30.03,-22.247 50.252,-25.015 21.04,-2.882 41.778,-8.958 62.178,-15.186 18.942,-5.782 36.985,-14.089 51.441,-30.514 -2.273,22.863 -24.931,63.246 -43.863,79.58 1.73,0.881 3.396,1.729 5.929,3.021 -9.462,18.471 -20.057,36.06 -33.281,51.751 -3.242,3.848 -10.524,4.854 -16.186,5.968 -7.312,1.437 -14.866,1.666 -22.934,3.953 6.305,3.033 12.61,6.068 20.41,9.819 -3.312,4.13 -5.222,7.632 -8.102,9.901 -10.571,8.313 -21.381,16.328 -32.268,24.231 -5.737,4.166 -12.248,5.151 -19.248,3.585 -8.405,-1.878 -16.88,-3.461 -28.086,-5.732 7.308,6.32 12.562,10.861 17.926,15.494 -23.006,15.931 -81.646,20.642 -109.761,8.613 -0.044,-0.093 -0.129,-0.155 1.338,-3.547 0.256,-0.595 2.714,-4.296 3.602,-5.221 18.008,-14.086 35.96,-29.018 54.847,-42.65 18.872,-13.627 38.683,-25.959 57.812,-39.317 -42.61,17.28 -81.652,40.468 -117.798,73.383 -0.585,-5.009 -1.371,-8.099 -1.242,-11.15 1.481,-35.121 18.261,-62.538 43.815,-85.212 15.835,-14.05 34.102,-24.415 53.468,-32.832 2.038,-0.888 4.374,-1.088 7.641,-1.861 -0.174,3.853 -0.306,6.752 -0.44,9.799 z" clip-rule="evenodd" style="fill:#d0d2d3;fill-rule:evenodd"/></g></g></g><g id="g3022-1-6-7" transform="matrix(0.44983343,-0.67785799,0.67785799,0.44983343,60.026212,123.03486)"><g id="g17-5-7-2" clip-path="url(#SVGID_2_-7-3-1)" transform="matrix(0.38862109,0,0,0.38862109,9.4814066,-12.790878)"><path id="path19-5-3-0" d="m 149.038,143.102 c 1.143,-0.366 2.165,-0.366 2.55,-0.861 12.782,-16.398 30.03,-22.247 50.252,-25.015 21.04,-2.882 41.778,-8.958 62.178,-15.186 18.942,-5.782 36.985,-14.089 51.441,-30.514 -2.273,22.863 -24.931,63.246 -43.863,79.58 1.73,0.881 3.396,1.729 5.929,3.021 -9.462,18.471 -20.057,36.06 -33.281,51.751 -3.242,3.848 -10.524,4.854 -16.186,5.968 -7.312,1.437 -14.866,1.666 -22.934,3.953 6.305,3.033 12.61,6.068 20.41,9.819 -3.312,4.13 -5.222,7.632 -8.102,9.901 -10.571,8.313 -21.381,16.328 -32.268,24.231 -5.737,4.166 -12.248,5.151 -19.248,3.585 -8.405,-1.878 -16.88,-3.461 -28.086,-5.732 7.308,6.32 12.562,10.861 17.926,15.494 -23.006,15.931 -81.646,20.642 -109.761,8.613 -0.044,-0.093 -0.129,-0.155 1.338,-3.547 0.256,-0.595 2.714,-4.296 3.602,-5.221 18.008,-14.086 35.96,-29.018 54.847,-42.65 18.872,-13.627 38.683,-25.959 57.812,-39.317 -42.61,17.28 -81.652,40.468 -117.798,73.383 -0.585,-5.009 -1.371,-8.099 -1.242,-11.15 1.481,-35.121 18.261,-62.538 43.815,-85.212 15.835,-14.05 34.102,-24.415 53.468,-32.832 2.038,-0.888 4.374,-1.088 7.641,-1.861 -0.174,3.853 -0.306,6.752 -0.44,9.799 z" clip-rule="evenodd" style="fill:#fffbf5;fill-rule:evenodd"/></g><g id="g21-6-0-7" clip-path="url(#SVGID_2_-7-3-1)" transform="matrix(0.38862109,0,0,0.38862109,9.4814066,-12.790878)"><defs id="defs23-1-1-9"><path id="SVGID_3_-6-3-4" d="m 36,279 c 0,0 135,-99 153,-108 18,-9 63,-27 81,-45 18,-18 45.459,-45.475 45,-54 -0.459,-8.525 36,45 36,45 L 270,234 99,315 36,279 z"/></defs><clipPath id="clipPath3825-2-2"><use id="use3827-9-5" width="360" height="360" x="0" y="0" overflow="visible" xlink:href="#SVGID_3_-6-3-4" style="overflow:visible"/></clipPath><g id="g29-8-1-2" clip-path="url(#SVGID_4_-8-7-3)" style="opacity:.2"><path id="path31-1-1-6" d="m 149.038,143.102 c 1.143,-0.366 2.165,-0.366 2.55,-0.861 12.782,-16.398 30.03,-22.247 50.252,-25.015 21.04,-2.882 41.778,-8.958 62.178,-15.186 18.942,-5.782 36.985,-14.089 51.441,-30.514 -2.273,22.863 -24.931,63.246 -43.863,79.58 1.73,0.881 3.396,1.729 5.929,3.021 -9.462,18.471 -20.057,36.06 -33.281,51.751 -3.242,3.848 -10.524,4.854 -16.186,5.968 -7.312,1.437 -14.866,1.666 -22.934,3.953 6.305,3.033 12.61,6.068 20.41,9.819 -3.312,4.13 -5.222,7.632 -8.102,9.901 -10.571,8.313 -21.381,16.328 -32.268,24.231 -5.737,4.166 -12.248,5.151 -19.248,3.585 -8.405,-1.878 -16.88,-3.461 -28.086,-5.732 7.308,6.32 12.562,10.861 17.926,15.494 -23.006,15.931 -81.646,20.642 -109.761,8.613 -0.044,-0.093 -0.129,-0.155 1.338,-3.547 0.256,-0.595 2.714,-4.296 3.602,-5.221 18.008,-14.086 35.96,-29.018 54.847,-42.65 18.872,-13.627 38.683,-25.959 57.812,-39.317 -42.61,17.28 -81.652,40.468 -117.798,73.383 -0.585,-5.009 -1.371,-8.099 -1.242,-11.15 1.481,-35.121 18.261,-62.538 43.815,-85.212 15.835,-14.05 34.102,-24.415 53.468,-32.832 2.038,-0.888 4.374,-1.088 7.641,-1.861 -0.174,3.853 -0.306,6.752 -0.44,9.799 z" clip-rule="evenodd" style="fill:#d0d2d3;fill-rule:evenodd"/></g></g></g><g id="g3022" transform="matrix(0.5529358,-0.83322387,0.83322387,0.5529358,92.315391,110.17949)"><g id="g17" clip-path="url(#SVGID_2_)" transform="matrix(0.38862109,0,0,0.38862109,9.4814066,-12.790878)"><path id="path19" d="m 149.038,143.102 c 1.143,-0.366 2.165,-0.366 2.55,-0.861 12.782,-16.398 30.03,-22.247 50.252,-25.015 21.04,-2.882 41.778,-8.958 62.178,-15.186 18.942,-5.782 36.985,-14.089 51.441,-30.514 -2.273,22.863 -24.931,63.246 -43.863,79.58 1.73,0.881 3.396,1.729 5.929,3.021 -9.462,18.471 -20.057,36.06 -33.281,51.751 -3.242,3.848 -10.524,4.854 -16.186,5.968 -7.312,1.437 -14.866,1.666 -22.934,3.953 6.305,3.033 12.61,6.068 20.41,9.819 -3.312,4.13 -5.222,7.632 -8.102,9.901 -10.571,8.313 -21.381,16.328 -32.268,24.231 -5.737,4.166 -12.248,5.151 -19.248,3.585 -8.405,-1.878 -16.88,-3.461 -28.086,-5.732 7.308,6.32 12.562,10.861 17.926,15.494 -23.006,15.931 -81.646,20.642 -109.761,8.613 -0.044,-0.093 -0.129,-0.155 1.338,-3.547 0.256,-0.595 2.714,-4.296 3.602,-5.221 18.008,-14.086 35.96,-29.018 54.847,-42.65 18.872,-13.627 38.683,-25.959 57.812,-39.317 -42.61,17.28 -81.652,40.468 -117.798,73.383 -0.585,-5.009 -1.371,-8.099 -1.242,-11.15 1.481,-35.121 18.261,-62.538 43.815,-85.212 15.835,-14.05 34.102,-24.415 53.468,-32.832 2.038,-0.888 4.374,-1.088 7.641,-1.861 -0.174,3.853 -0.306,6.752 -0.44,9.799 z" clip-rule="evenodd" style="fill:#fffbf5;fill-rule:evenodd"/></g><g id="g21" clip-path="url(#SVGID_2_)" transform="matrix(0.38862109,0,0,0.38862109,9.4814066,-12.790878)"><defs id="defs23"><path id="SVGID_3_" d="m 36,279 c 0,0 135,-99 153,-108 18,-9 63,-27 81,-45 18,-18 45.459,-45.475 45,-54 -0.459,-8.525 36,45 36,45 L 270,234 99,315 36,279 z"/></defs><clipPath id="SVGID_4_"><use id="use27" width="360" height="360" x="0" y="0" overflow="visible" xlink:href="#SVGID_3_" style="overflow:visible"/></clipPath><g id="g29" clip-path="url(#SVGID_4_)" style="opacity:.2"><path id="path31" d="m 149.038,143.102 c 1.143,-0.366 2.165,-0.366 2.55,-0.861 12.782,-16.398 30.03,-22.247 50.252,-25.015 21.04,-2.882 41.778,-8.958 62.178,-15.186 18.942,-5.782 36.985,-14.089 51.441,-30.514 -2.273,22.863 -24.931,63.246 -43.863,79.58 1.73,0.881 3.396,1.729 5.929,3.021 -9.462,18.471 -20.057,36.06 -33.281,51.751 -3.242,3.848 -10.524,4.854 -16.186,5.968 -7.312,1.437 -14.866,1.666 -22.934,3.953 6.305,3.033 12.61,6.068 20.41,9.819 -3.312,4.13 -5.222,7.632 -8.102,9.901 -10.571,8.313 -21.381,16.328 -32.268,24.231 -5.737,4.166 -12.248,5.151 -19.248,3.585 -8.405,-1.878 -16.88,-3.461 -28.086,-5.732 7.308,6.32 12.562,10.861 17.926,15.494 -23.006,15.931 -81.646,20.642 -109.761,8.613 -0.044,-0.093 -0.129,-0.155 1.338,-3.547 0.256,-0.595 2.714,-4.296 3.602,-5.221 18.008,-14.086 35.96,-29.018 54.847,-42.65 18.872,-13.627 38.683,-25.959 57.812,-39.317 -42.61,17.28 -81.652,40.468 -117.798,73.383 -0.585,-5.009 -1.371,-8.099 -1.242,-11.15 1.481,-35.121 18.261,-62.538 43.815,-85.212 15.835,-14.05 34.102,-24.415 53.468,-32.832 2.038,-0.888 4.374,-1.088 7.641,-1.861 -0.174,3.853 -0.306,6.752 -0.44,9.799 z" clip-rule="evenodd" style="fill:#d0d2d3;fill-rule:evenodd"/></g></g></g><g id="g3022-1-6-6" transform="matrix(-0.44983343,-0.67785799,-0.67785799,0.44983343,360.07337,141.54334)"><g id="g17-5-7-1" clip-path="url(#SVGID_2_-7-3-10)" transform="matrix(0.38862109,0,0,0.38862109,9.4814066,-12.790878)"><path id="path19-5-3-4" d="m 149.038,143.102 c 1.143,-0.366 2.165,-0.366 2.55,-0.861 12.782,-16.398 30.03,-22.247 50.252,-25.015 21.04,-2.882 41.778,-8.958 62.178,-15.186 18.942,-5.782 36.985,-14.089 51.441,-30.514 -2.273,22.863 -24.931,63.246 -43.863,79.58 1.73,0.881 3.396,1.729 5.929,3.021 -9.462,18.471 -20.057,36.06 -33.281,51.751 -3.242,3.848 -10.524,4.854 -16.186,5.968 -7.312,1.437 -14.866,1.666 -22.934,3.953 6.305,3.033 12.61,6.068 20.41,9.819 -3.312,4.13 -5.222,7.632 -8.102,9.901 -10.571,8.313 -21.381,16.328 -32.268,24.231 -5.737,4.166 -12.248,5.151 -19.248,3.585 -8.405,-1.878 -16.88,-3.461 -28.086,-5.732 7.308,6.32 12.562,10.861 17.926,15.494 -23.006,15.931 -81.646,20.642 -109.761,8.613 -0.044,-0.093 -0.129,-0.155 1.338,-3.547 0.256,-0.595 2.714,-4.296 3.602,-5.221 18.008,-14.086 35.96,-29.018 54.847,-42.65 18.872,-13.627 38.683,-25.959 57.812,-39.317 -42.61,17.28 -81.652,40.468 -117.798,73.383 -0.585,-5.009 -1.371,-8.099 -1.242,-11.15 1.481,-35.121 18.261,-62.538 43.815,-85.212 15.835,-14.05 34.102,-24.415 53.468,-32.832 2.038,-0.888 4.374,-1.088 7.641,-1.861 -0.174,3.853 -0.306,6.752 -0.44,9.799 z" clip-rule="evenodd" style="fill:#fffbf5;fill-rule:evenodd"/></g><g id="g21-6-0-3" clip-path="url(#SVGID_2_-7-3-10)" transform="matrix(0.38862109,0,0,0.38862109,9.4814066,-12.790878)"><defs id="defs23-1-1-4"><path id="SVGID_3_-6-3-7" d="m 36,279 c 0,0 135,-99 153,-108 18,-9 63,-27 81,-45 18,-18 45.459,-45.475 45,-54 -0.459,-8.525 36,45 36,45 L 270,234 99,315 36,279 z"/></defs><clipPath id="clipPath3825-2-7"><use id="use3827-9-9" width="360" height="360" x="0" y="0" overflow="visible" xlink:href="#SVGID_3_-6-3-7" style="overflow:visible"/></clipPath><g id="g29-8-1-9" clip-path="url(#SVGID_4_-8-7-6)" style="opacity:.2"><path id="path31-1-1-62" d="m 149.038,143.102 c 1.143,-0.366 2.165,-0.366 2.55,-0.861 12.782,-16.398 30.03,-22.247 50.252,-25.015 21.04,-2.882 41.778,-8.958 62.178,-15.186 18.942,-5.782 36.985,-14.089 51.441,-30.514 -2.273,22.863 -24.931,63.246 -43.863,79.58 1.73,0.881 3.396,1.729 5.929,3.021 -9.462,18.471 -20.057,36.06 -33.281,51.751 -3.242,3.848 -10.524,4.854 -16.186,5.968 -7.312,1.437 -14.866,1.666 -22.934,3.953 6.305,3.033 12.61,6.068 20.41,9.819 -3.312,4.13 -5.222,7.632 -8.102,9.901 -10.571,8.313 -21.381,16.328 -32.268,24.231 -5.737,4.166 -12.248,5.151 -19.248,3.585 -8.405,-1.878 -16.88,-3.461 -28.086,-5.732 7.308,6.32 12.562,10.861 17.926,15.494 -23.006,15.931 -81.646,20.642 -109.761,8.613 -0.044,-0.093 -0.129,-0.155 1.338,-3.547 0.256,-0.595 2.714,-4.296 3.602,-5.221 18.008,-14.086 35.96,-29.018 54.847,-42.65 18.872,-13.627 38.683,-25.959 57.812,-39.317 -42.61,17.28 -81.652,40.468 -117.798,73.383 -0.585,-5.009 -1.371,-8.099 -1.242,-11.15 1.481,-35.121 18.261,-62.538 43.815,-85.212 15.835,-14.05 34.102,-24.415 53.468,-32.832 2.038,-0.888 4.374,-1.088 7.641,-1.861 -0.174,3.853 -0.306,6.752 -0.44,9.799 z" clip-rule="evenodd" style="fill:#d0d2d3;fill-rule:evenodd"/></g></g></g><g id="g4174"><g id="g3022-1-6-7-5" transform="matrix(0.44983343,-0.67785799,0.67785799,0.44983343,10.409684,141.54334)"><g id="g17-5-7-2-3" clip-path="url(#SVGID_2_-7-3-1-1)" transform="matrix(0.38862109,0,0,0.38862109,9.4814066,-12.790878)"><path style="fill:#fffbf5;fill-rule:evenodd" id="path19-5-3-0-9" d="m 149.038,143.102 c 1.143,-0.366 2.165,-0.366 2.55,-0.861 12.782,-16.398 30.03,-22.247 50.252,-25.015 21.04,-2.882 41.778,-8.958 62.178,-15.186 18.942,-5.782 36.985,-14.089 51.441,-30.514 -2.273,22.863 -24.931,63.246 -43.863,79.58 1.73,0.881 3.396,1.729 5.929,3.021 -9.462,18.471 -20.057,36.06 -33.281,51.751 -3.242,3.848 -10.524,4.854 -16.186,5.968 -7.312,1.437 -14.866,1.666 -22.934,3.953 6.305,3.033 12.61,6.068 20.41,9.819 -3.312,4.13 -5.222,7.632 -8.102,9.901 -10.571,8.313 -21.381,16.328 -32.268,24.231 -5.737,4.166 -12.248,5.151 -19.248,3.585 -8.405,-1.878 -16.88,-3.461 -28.086,-5.732 7.308,6.32 12.562,10.861 17.926,15.494 -23.006,15.931 -81.646,20.642 -109.761,8.613 -0.044,-0.093 -0.129,-0.155 1.338,-3.547 0.256,-0.595 2.714,-4.296 3.602,-5.221 18.008,-14.086 35.96,-29.018 54.847,-42.65 18.872,-13.627 38.683,-25.959 57.812,-39.317 -42.61,17.28 -81.652,40.468 -117.798,73.383 -0.585,-5.009 -1.371,-8.099 -1.242,-11.15 1.481,-35.121 18.261,-62.538 43.815,-85.212 15.835,-14.05 34.102,-24.415 53.468,-32.832 2.038,-0.888 4.374,-1.088 7.641,-1.861 -0.174,3.853 -0.306,6.752 -0.44,9.799 z" clip-rule="evenodd"/></g><g id="g21-6-0-7-7" clip-path="url(#SVGID_2_-7-3-1-1)" transform="matrix(0.38862109,0,0,0.38862109,9.4814066,-12.790878)"><defs id="defs23-1-1-9-0"><path id="SVGID_3_-6-3-4-8" d="m 36,279 c 0,0 135,-99 153,-108 18,-9 63,-27 81,-45 18,-18 45.459,-45.475 45,-54 -0.459,-8.525 36,45 36,45 L 270,234 99,315 36,279 z"/></defs><clipPath id="clipPath3825-2-2-3"><use style="overflow:visible" id="use3827-9-5-5" width="360" height="360" x="0" y="0" overflow="visible" xlink:href="#SVGID_3_-6-3-4-8"/></clipPath><g style="opacity:.2" id="g29-8-1-2-3" clip-path="url(#SVGID_4_-8-7-3-5)"><path style="fill:#d0d2d3;fill-rule:evenodd" id="path31-1-1-6-6" d="m 149.038,143.102 c 1.143,-0.366 2.165,-0.366 2.55,-0.861 12.782,-16.398 30.03,-22.247 50.252,-25.015 21.04,-2.882 41.778,-8.958 62.178,-15.186 18.942,-5.782 36.985,-14.089 51.441,-30.514 -2.273,22.863 -24.931,63.246 -43.863,79.58 1.73,0.881 3.396,1.729 5.929,3.021 -9.462,18.471 -20.057,36.06 -33.281,51.751 -3.242,3.848 -10.524,4.854 -16.186,5.968 -7.312,1.437 -14.866,1.666 -22.934,3.953 6.305,3.033 12.61,6.068 20.41,9.819 -3.312,4.13 -5.222,7.632 -8.102,9.901 -10.571,8.313 -21.381,16.328 -32.268,24.231 -5.737,4.166 -12.248,5.151 -19.248,3.585 -8.405,-1.878 -16.88,-3.461 -28.086,-5.732 7.308,6.32 12.562,10.861 17.926,15.494 -23.006,15.931 -81.646,20.642 -109.761,8.613 -0.044,-0.093 -0.129,-0.155 1.338,-3.547 0.256,-0.595 2.714,-4.296 3.602,-5.221 18.008,-14.086 35.96,-29.018 54.847,-42.65 18.872,-13.627 38.683,-25.959 57.812,-39.317 -42.61,17.28 -81.652,40.468 -117.798,73.383 -0.585,-5.009 -1.371,-8.099 -1.242,-11.15 1.481,-35.121 18.261,-62.538 43.815,-85.212 15.835,-14.05 34.102,-24.415 53.468,-32.832 2.038,-0.888 4.374,-1.088 7.641,-1.861 -0.174,3.853 -0.306,6.752 -0.44,9.799 z" clip-rule="evenodd"/></g></g></g></g><rect id="rect3-8" width="370" height="5" x="0" y="120" style="fill:#2c3e50;fill-opacity:1"/></svg>