<svg xmlns="http://www.w3.org/2000/svg" xmlns:svg="http://www.w3.org/2000/svg" id="svg2" width="370" height="125" version="1.1"><metadata id="metadata24"/><rect style="fill:#9c1d52" id="rect4" width="370" height="125" x="0" y="0"/><path style="fill:#212e3c;fill-opacity:1" id="path6" d="m 332.0625,120 -294.288132,0 0,-101.360461 c 0,-4.799578 3.890807,-8.690385 8.690384,-8.690385 l 277.069958,0 c 4.80012,0 8.69092,3.890807 8.69092,8.690385 z"/><path style="fill:#fffbf5" id="polyline8" d="m 321.75461,20.994374 0,99.005626 -273.509221,0 0,-99.005626"/><path style="opacity:.4;fill:#d7d7cc;fill-opacity:1" id="path14-0" d="m 303.76285,51.092413 c 0,1.48698 -1.20488,2.69185 -2.69186,2.69185 l -188.14171,0 c -1.48644,0 -2.69186,-1.20487 -2.69186,-2.69185 l 0,-18.84299 c 0,-1.48698 1.20542,-2.691849 2.69186,-2.691849 l 188.14171,0 c 1.48698,0 2.69186,1.204869 2.69186,2.691849 z"/><path style="fill:#59ca6a;fill-opacity:1" id="path12-9" d="m 93.762585,51.092421 c 0,1.48751 -2.14272,2.69185 -4.78558,2.69185 l -19.954269,0 c -2.642323,0 -4.785582,-1.20434 -4.785582,-2.69185 l 0,-18.84299 c 0,-1.48752 2.142719,-2.69186 4.785582,-2.69186 l 19.954809,0 c 2.64232,0 4.628566,1.21265 4.78557,2.69186 l 0,18.84299 z"/><path style="fill:#fffbf5" id="path18-3" d="m 87.346774,38.703421 -11.942687,9.37304 -4.739281,-3.74437 -0.01131,-3.43696 4.739821,3.73145 11.942697,-9.3612 0.0107,3.43804 z"/><path style="opacity:.4;fill:#d7d7cc;fill-opacity:1" id="path14-0-5" d="m 303.76285,80.418678 c 0,1.48698 -1.20488,2.69185 -2.69186,2.69185 l -188.14171,0 c -1.48644,0 -2.69186,-1.20487 -2.69186,-2.69185 l 0,-18.842986 c 0,-1.48698 1.20542,-2.69185 2.69186,-2.69185 l 188.14171,0 c 1.48698,0 2.69186,1.20487 2.69186,2.69185 z"/><path style="fill:#ffd259" id="path12-9-8" d="m 93.762585,80.418689 c 0,1.48751 -2.14272,2.69185 -4.78558,2.69185 l -19.954269,0 c -2.642323,0 -4.785582,-1.20434 -4.785582,-2.69185 l 0,-18.84299 c 0,-1.48752 2.142719,-2.69186 4.785582,-2.69186 l 19.954809,0 c 2.64232,0 4.628566,1.21265 4.78557,2.69186 l 0,18.84299 z"/><path style="opacity:.4;fill:#d7d7cc;fill-opacity:1" id="path14-0-3" d="m 303.76285,109.74495 c 0,1.48698 -1.20488,2.69185 -2.69186,2.69185 l -188.14171,0 c -1.48644,0 -2.69186,-1.20487 -2.69186,-2.69185 l 0,-18.84299 c 0,-1.48697 1.20542,-2.69184 2.69186,-2.69184 l 188.14171,0 c 1.48698,0 2.69186,1.20487 2.69186,2.69184 z"/><path style="fill:#ff5959;fill-opacity:1" id="path12-9-9" d="m 93.762585,109.74496 c 0,1.48751 -2.14272,2.69185 -4.78558,2.69185 l -19.954269,0 c -2.642323,0 -4.785582,-1.20434 -4.785582,-2.69185 l 0,-18.84299 c 0,-1.48752 2.142719,-2.69186 4.785582,-2.69186 l 19.954809,0 c 2.64232,0 4.628566,1.21265 4.78557,2.69186 l 0,18.84299 z"/><rect style="fill:#59112f;fill-opacity:1;stroke:none" id="rect3179" width="370" height="5" x="0" y="120"/></svg>